<svg id="Layer_2_00000134225589579361346280000004714030601464225175_" enable-background="new 0 0 512 512" viewBox="0 0 512 512" xmlns="http://www.w3.org/2000/svg"><g id="Icon"><path id="_45" d="m222.3 157.5c-9.4 0-14.1-11.3-7.4-17.9l105.1-105.2c8.2-8.2 21.5-8.2 29.7 0l105.1 105.1c6.6 6.6 1.9 17.9-7.4 17.9h-53.4v136.6c0 11.6-9.4 21-21 21h-76.2c-11.6 0-21-9.4-21-21v-136.5zm-157.7 197c-9.4 0-14 11.3-7.4 17.9l105.1 105.1c8.2 8.2 21.5 8.2 29.7 0l105.1-105.1c6.6-6.6 1.9-17.9-7.4-17.9h-53.4v-136.6c0-11.6-9.4-21-21-21h-76.2c-11.6 0-21 9.4-21 21v136.6z"/></g></svg>